<?xml version="1.0" encoding="utf-8"?>
<!-- Generator: Adobe Illustrator 23.0.0, SVG Export Plug-In . SVG Version: 6.00 Build 0)  -->
<svg version="1.1" id="GD001" xmlns="http://www.w3.org/2000/svg" xmlns:xlink="http://www.w3.org/1999/xlink" x="0px" y="0px"
	 viewBox="0 0 566.9 680.3" style="enable-background:new 0 0 566.9 680.3;" xml:space="preserve">
<style type="text/css">
	.st0{fill:#FFFFFF;}
</style>
<g>
	<path class="st0" d="M66.4,632.4h-23l-3.2,7.4H28.1l20.4-47.6h12.8l20.4,47.6H69.5L66.4,632.4z M62.4,623.1L55,605.3l-7.6,17.8
		H62.4z"/>
	<path class="st0" d="M130.7,628.3c-4.3,7.1-12.2,12.4-22.3,12.4c-14.9,0-25.8-10.9-25.8-25c0-13.2,10.9-24.3,25.8-24.3
		c10.2,0,18.1,4.8,22.4,11.9l-9.7,5.7c-2.2-4.3-6.7-7.2-12.7-7.2c-8.3,0-14.1,6.1-14.1,13.9c0,7.6,5.8,14.2,14.1,14.2
		c5.9,0,10.2-3,12.5-7.2L130.7,628.3z"/>
	<path class="st0" d="M182.7,628.3c-4.3,7.1-12.2,12.4-22.3,12.4c-14.9,0-25.8-10.9-25.8-25c0-13.2,10.9-24.3,25.8-24.3
		c10.2,0,18.1,4.8,22.4,11.9l-9.7,5.7c-2.2-4.3-6.7-7.2-12.7-7.2c-8.3,0-14.1,6.1-14.1,13.9c0,7.6,5.8,14.2,14.1,14.2
		c5.9,0,10.2-3,12.5-7.2L182.7,628.3z"/>
	<path class="st0" d="M226.9,592.3v10.6h-25v8.2h20.9v9.9h-20.9v8.2h25v10.6h-36.5v-47.6H226.9z"/>
	<path class="st0" d="M273.1,607.3h-11.4c0-2.4-2.8-5.6-7.7-5.6c-3.4,0-7.6,1.5-7.6,4.3c0,2.3,3.2,3.2,9.9,5c7.5,2,18.1,4.5,18.1,15
		c0,9.1-8,14.8-19.1,14.8c-14.9,0-21.1-10.1-21.1-17.5h11.4c0,0,0.9,7.6,10.4,7.6c5.1,0,7-2.2,7-4.2c0-3-4-4.1-8.4-5.1
		c-7.1-1.7-19.7-4.3-19.7-14.9c0-8.7,8.5-15.1,19.4-15.1C266.5,591.4,273.1,599.9,273.1,607.3z"/>
	<path class="st0" d="M319.6,607.3h-11.4c0-2.4-2.8-5.6-7.7-5.6c-3.4,0-7.6,1.5-7.6,4.3c0,2.3,3.2,3.2,9.9,5c7.5,2,18.1,4.5,18.1,15
		c0,9.1-8,14.8-19.1,14.8c-14.9,0-21.1-10.1-21.1-17.5h11.4c0,0,0.9,7.6,10.4,7.6c5.1,0,7-2.2,7-4.2c0-3-4-4.1-8.4-5.1
		c-7.1-1.7-19.7-4.3-19.7-14.9c0-8.7,8.5-15.1,19.4-15.1C313,591.4,319.6,599.9,319.6,607.3z"/>
	<path class="st0" d="M375.2,616.1c0,13.6-11.1,24.6-24.6,24.6c-13.7,0-24.6-11.1-24.6-24.6c0-13.5,10.9-24.6,24.6-24.6
		C364.1,591.4,375.2,602.5,375.2,616.1z M336.6,616.1c0,7.8,6.3,14,14.1,14c7.6,0,13.9-6.2,13.9-14c0-7.7-6.3-13.9-13.9-13.9
		C342.9,602.1,336.6,608.4,336.6,616.1z"/>
	<path class="st0" d="M422.7,610.1c0,6.9-3.4,12.7-8.5,15.4l9.8,14.4h-14.3l-7.1-11.8h-8.4v11.8h-11.5v-47.6h23
		C415.5,592.3,422.7,599.7,422.7,610.1z M394.2,602.9v14.5h9.9c3.9,0,7.1-3.3,7.1-7.3c0-3.9-3.2-7.2-7-7.2H394.2z"/>
	<path class="st0" d="M443.7,639.9h-11.5v-47.6h11.5V639.9z"/>
	<path class="st0" d="M490.8,592.3v10.6h-25v8.2h20.9v9.9h-20.9v8.2h25v10.6h-36.5v-47.6H490.8z"/>
	<path class="st0" d="M537,607.3h-11.4c0-2.4-2.8-5.6-7.7-5.6c-3.4,0-7.6,1.5-7.6,4.3c0,2.3,3.2,3.2,9.9,5c7.5,2,18.1,4.5,18.1,15
		c0,9.1-8,14.8-19.1,14.8c-14.9,0-21.1-10.1-21.1-17.5h11.4c0,0,0.9,7.6,10.4,7.6c5.1,0,7-2.2,7-4.2c0-3-4-4.1-8.4-5.1
		c-7.1-1.7-19.7-4.3-19.7-14.9c0-8.7,8.5-15.1,19.4-15.1C530.5,591.4,537,599.9,537,607.3z"/>
</g>
<g id="gradient_2_">
	<path class="st0" d="M464.5,291.9l-21.8-7.3l-15.2-98.6v-19.4c0-15.6-10.1-29.5-25-34.3l-10.9-59.2c-0.7-3.8-4-6.5-7.9-6.5h-48
		c-3.8,0-7.1,2.7-7.9,6.5l-10.9,57.5h-9.4v-8c0-13.3-10.7-24-24-24c-13.3,0-24,10.7-24,24v8h-9.4l-10.9-57.5c-0.7-3.8-4-6.5-7.9-6.5
		h-48c-3.9,0-7.2,2.8-7.9,6.5l-10.9,59.2c-14.9,4.8-25,18.6-25,34.3v19.4l-15.2,98.6l-21.8,7.3c-30.5,10.1-51,38.7-51,70.8v94
		c0,32.6,24.5,59.9,56.8,63.5l16,1.8c3.4,14.5,16.3,24.7,31.2,24.7h256c14.9,0,27.8-10.3,31.2-24.7l16-1.8
		c32.4-3.6,56.9-30.9,56.8-63.5v-94C515.5,330.6,494.9,302.1,464.5,291.9z M499.3,357.8c-17.6,8-36.5,12.4-55.8,12.9v-68.8l15.9,5.3
		C481.6,314.5,497.3,334.4,499.3,357.8L499.3,357.8z M342.3,82.7H377l8.9,48h-52.7L342.3,82.7z M275.5,122.7c0-4.4,3.6-8,8-8
		s8,3.6,8,8v8h-16V122.7z M189.9,82.7h34.7l9.1,48h-52.7L189.9,82.7z M175.5,146.7h216c11,0,20,9,20,20v12h-256v-12
		C155.5,155.7,164.4,146.7,175.5,146.7z M315.5,194.7v16h-64v-16H315.5z M251.5,338.7v-48h64v48H251.5z M315.5,274.7h-64v-48h64
		V274.7z M235.5,378.7h-24v-24h24V378.7z M211.5,394.7h24v52c0,6.6-5.4,12-12,12s-12-5.4-12-12V394.7z M251.5,354.7h64v64h-64V354.7
		z M331.5,394.7h24v52c0,6.6-5.4,12-12,12s-12-5.4-12-12V394.7z M355.5,378.7h-24v-24h24V378.7z M235.5,338.7h-24v-144h24V338.7z
		 M195.5,274.6c-9.1-1-16-8.7-16-17.9v-30h16V274.6z M195.5,416.7c-9.7-4-16-13.5-16-24v-28c0-5.5,4.5-10,10-10h6V416.7z
		 M179.5,425.7c4.7,3.7,10.2,6.4,16,7.8v13.2c0,15.5,12.5,28,28,28s28-12.5,28-28l0,0v-12h64v12c0,15.5,12.5,28,28,28s28-12.5,28-28
		l0,0v-13.2c5.8-1.4,11.3-4.1,16-7.8v55c0,5.5-4.5,10-10,10h-188c-5.5,0-10-4.5-10-10V425.7z M387.5,392.7c0,10.5-6.3,20-16,24v-62
		h6c5.5,0,10,4.5,10,10V392.7z M371.5,226.7h16v30c0,9.2-6.9,16.9-16,17.9V226.7z M355.5,338.7h-24v-144h24V338.7z M107.5,307.1
		l15.9-5.3v68.8c-19.3-0.5-38.2-4.9-55.8-12.9C69.6,334.4,85.3,314.5,107.5,307.1z M67.5,456.7v-81.6c17.8,7.2,36.8,11.1,56,11.6
		v119.1l-13.4-1.5C85.8,501.6,67.4,481.1,67.5,456.7z M411.5,530.7h-256c-8.8,0-16-7.2-16-16V291.3l14.9-96.6h41.1v16h-24
		c-4.4,0-8,3.6-8,8v38c0,18,14,32.9,32,33.9v48.1h-6c-14.4,0-26,11.6-26,26v116c0,14.4,11.6,26,26,26h188c14.4,0,26-11.6,26-26v-116
		c0-14.4-11.6-26-26-26h-6v-48.1c18-1.1,32-15.9,32-33.9v-38c0-4.4-3.6-8-8-8h-24v-16h41.1l14.9,96.6v223.4
		C427.5,523.5,420.3,530.7,411.5,530.7z M456.9,504.3l-13.4,1.5V386.7c19.2-0.5,38.2-4.4,56-11.6v81.6
		C499.5,481.1,481.1,501.6,456.9,504.3z"/>
</g>
</svg>
