<?xml version="1.0" encoding="utf-8"?>
<!-- Generator: Adobe Illustrator 23.0.0, SVG Export Plug-In . SVG Version: 6.00 Build 0)  -->
<svg version="1.1" id="GD001" xmlns="http://www.w3.org/2000/svg" xmlns:xlink="http://www.w3.org/1999/xlink" x="0px" y="0px"
	 viewBox="0 0 566.9 680.3" style="enable-background:new 0 0 566.9 680.3;" xml:space="preserve">
<style type="text/css">
	.st0{fill:#FFFFFF;}
</style>
<g>
	<path class="st0" d="M198.1,519.8h-16.9v37h-11.6v-37h-16.9v-10.6h45.4V519.8z"/>
	<path class="st0" d="M231.6,549.3h-23l-3.2,7.4h-12.2l20.4-47.6h12.8l20.4,47.6h-12.3L231.6,549.3z M208.7,507.4l-5-6l16.5-9.9
		l16.5,9.9l-5,6l-11.6-7.7L208.7,507.4z M227.6,539.9l-7.4-17.8l-7.6,17.8H227.6z"/>
	<path class="st0" d="M288.4,519.8h-16.9v37h-11.6v-37H243v-10.6h45.4V519.8z"/>
	<path class="st0" d="M358.5,545.2c-4.3,7.1-12.2,12.4-22.3,12.4c-14.9,0-25.8-10.9-25.8-25c0-13.2,10.9-24.3,25.8-24.3
		c10.2,0,18.1,4.8,22.4,11.9l-9.7,5.7c-2.2-4.3-6.7-7.2-12.7-7.2c-8.3,0-14.1,6.1-14.1,13.9c0,7.6,5.8,14.2,14.1,14.2
		c5.9,0,10.2-3,12.5-7.2L358.5,545.2z"/>
	<path class="st0" d="M398.9,549.3h-23l-3.2,7.4h-12.2l20.4-47.6h12.8l20.4,47.6H402L398.9,549.3z M394.9,539.9l-7.4-17.8l-7.6,17.8
		H394.9z"/>
	<path class="st0" d="M122.6,608.2h-11.4c0-2.4-2.8-5.6-7.7-5.6c-3.4,0-7.6,1.5-7.6,4.3c0,2.3,3.2,3.2,9.9,5c7.5,2,18.1,4.5,18.1,15
		c0,9.1-8,14.8-19.1,14.8c-14.9,0-21.1-10.1-21.1-17.5H95c0,0,0.9,7.6,10.4,7.6c5.1,0,7-2.2,7-4.2c0-3-4-4.1-8.4-5.1
		c-7.1-1.7-19.7-4.3-19.7-14.9c0-8.7,8.5-15.1,19.4-15.1C116,592.3,122.6,600.8,122.6,608.2z"/>
	<path class="st0" d="M164.5,633.3h-23l-3.2,7.4h-12.2l20.4-47.6h12.8l20.4,47.6h-12.3L164.5,633.3z M160.5,623.9l-7.4-17.8
		l-7.6,17.8H160.5z"/>
	<path class="st0" d="M234.1,640.7h-11.6l-24.1-29.1v29.1h-11.6v-47.6h11.6l24.1,29.1v-29.1h11.6V640.7z"/>
	<path class="st0" d="M300.4,611.5c0,9.4-6,18.5-18.1,18.5h-10.4v10.8h-11.6v-47.6h22C294.5,593.1,300.4,602.2,300.4,611.5z
		 M271.9,603.8v15.6h9.1c4.6,0,7.8-2.7,7.8-7.9c0-5.1-3.2-7.6-7.8-7.7H271.9z"/>
	<path class="st0" d="M353.2,640.7h-11.6v-18.5h-20.9v18.5h-11.5v-47.6h11.5v18.5h20.9v-18.5h11.6V640.7z"/>
	<path class="st0" d="M399.3,633.3h-23l-3.2,7.4H361l20.4-47.6h12.8l20.4,47.6h-12.3L399.3,633.3z M376.4,591.4l-5-6l16.5-9.9
		l16.5,9.9l-5,6l-11.6-7.7L376.4,591.4z M395.3,623.9l-7.4-17.8l-7.6,17.8H395.3z"/>
	<path class="st0" d="M481.3,640.7h-11.6v-24.3l-11.4,24.3h-12.8l-11.4-24.3v24.3h-11.5v-47.6h12.7l16.6,34.9l16.5-34.9h12.8V640.7z
		"/>
</g>
<g>
	<g>
		<g>
			<path class="st0" d="M310.7,123.3v40.9c0,7.1,2.9,14.1,7.9,19.1l41.5,41.5c1.8,1.8,5,0.5,5-2.1V120.9l50-49.2
				c1.7-1.5,4.4-0.3,4.4,2v311c0,1.3-1,2.3-2.3,2.3h-49.7c-1.3,0-2.3-1-2.3-2.3v-62.4c0-7-2.8-13.9-7.8-18.9l-93.2-93.2
				c-5-5-7.8-11.8-7.8-18.9v-67.9c0-1.3,1-2.3,2.3-2.3h49.7C309.7,120.9,310.7,122,310.7,123.3z"/>
		</g>
	</g>
	<g>
		<g>
			<path class="st0" d="M201.8,146.8v64.5c0,7.1,2.9,14.1,7.9,19.1l93.8,93.8c4.6,4.6,7.2,10.9,7.2,17.5v65c0,2.3-2.9,3.6-4.6,1.9
				L155.3,257.8c-5-5-7.9-11.9-7.9-19.1v-91.8c0-1.5,1.1-2.6,2.6-2.6h49.2C200.7,144.2,201.8,145.4,201.8,146.8z"/>
		</g>
	</g>
	<g>
		<g>
			<path class="st0" d="M225.2,408.2l-72.9-73c-1.8-1.8-5-0.5-5,2v148.3c0,2.3,2.9,3.6,4.5,1.9l73.3-71.7
				C227.3,413.7,227.3,410.3,225.2,408.2z"/>
		</g>
	</g>
</g>
<path class="st0" d="M251.3,478.4l3.6,9.2l-22.3,6.9l-3.4-6.9L251.3,478.4z"/>
<path class="st0" d="M398.4,494.2c0,6.8-7.3,6.5-7.3,10.1h-6.8c0-6.3,7.7-5.9,7.7-9c0-1.8-1.6-3.1-3.6-3.1c-2,0-3.5,1.5-3.5,3h-6.3
	c0-5.3,3.9-8.8,10.3-8.8C395.4,486.5,398.4,490,398.4,494.2z"/>
<path class="st0" d="M164,578.2c0,6.8-7.3,6.5-7.3,10.1h-6.8c0-6.3,7.7-5.9,7.7-9c0-1.8-1.6-3.1-3.6-3.1c-2,0-3.5,1.5-3.5,3h-6.3
	c0-5.3,3.9-8.8,10.3-8.8C161,570.5,164,574,164,578.2z"/>
<path class="st0" d="M409.7,567.5c0,6.8-7.3,6.5-7.3,10.1h-6.8c0-6.3,7.7-5.9,7.7-9c0-1.8-1.6-3.1-3.6-3.1c-2,0-3.5,1.5-3.5,3h-6.3
	c0-5.3,3.9-8.8,10.3-8.8C406.6,559.7,409.7,563.2,409.7,567.5z"/>
</svg>
