<?xml version="1.0" encoding="utf-8"?>
<!-- Generator: Adobe Illustrator 23.0.0, SVG Export Plug-In . SVG Version: 6.00 Build 0)  -->
<svg version="1.1" id="GD001" xmlns="http://www.w3.org/2000/svg" xmlns:xlink="http://www.w3.org/1999/xlink" x="0px" y="0px"
	 viewBox="0 0 566.9 680.3" style="enable-background:new 0 0 566.9 680.3;" xml:space="preserve">
<style type="text/css">
	.st0{fill:#FFFFFF;}
</style>
<g id="Gradient_outline">
	<path class="st0" d="M131.5,509v29.6c0,4.4,3.6,8,8,8h120c4.4,0,8-3.6,8-8v-30.7l7.6-22.8c0.2-0.7,0.4-1.3,0.4-2l8-132.2l8,132.2
		c0,0.7,0.2,1.4,0.4,2l7.6,22.8v30.7c0,4.4,3.6,8,8,8h120c4.4,0,8-3.6,8-8V509l14.7-22c0.9-1.4,1.4-3.1,1.3-4.8l-16-352
		c-0.1-1.5-0.5-2.9-1.3-4.1l-14.7-21.9V74.6c0-4.4-3.6-8-8-8h-256c-4.4,0-8,3.6-8,8v29.6l-14.7,22c-0.8,1.2-1.3,2.6-1.3,4.1l-16,352
		c-0.1,1.7,0.4,3.4,1.3,4.8L131.5,509z M134.9,407.9c49.9-7.5,96.3-30,133-64.6l-1.3,21.4c-31.2,36.7-92.7,55.3-132.7,63.9
		L134.9,407.9z M259.5,481.1l-5.8,17.5h-110l-12.2-18.3l1.6-35.3c37-7.6,94.6-23.9,132-56.2L259.5,481.1z M251.5,530.6h-104v-16h104
		V530.6z M275.5,218.1L269.4,319c-35.2,38.6-82.3,64.1-133.8,72.6l7.5-165.2c29.4-1.9,52.3-26.3,52.4-55.8v-56h56v64
		c0,4.4-3.6,8-8,8h-16v16h16c13.3,0,24-10.7,24-24v-64h32v88c0,13.3,10.7,24,24,24h16v-16h-16c-4.4,0-8-3.6-8-8v-88h56v56
		c0,29.5,22.9,53.9,52.3,55.8l7.5,165.2c-51.5-8.5-98.6-34.1-133.8-72.6l-6.1-100.8c0-4.4-3.6-8-8-8S275.5,213.7,275.5,218.1z
		 M435.4,480.4l-12.2,18.3h-110l-5.8-17.5l-5.6-92.2c37.3,32.3,95,48.6,132,56.2L435.4,480.4z M300.3,364.7l-1.3-21.4
		c36.7,34.6,83.1,57.2,133,64.6l0.9,20.6C393,420,331.5,401.4,300.3,364.7z M419.5,530.6h-104v-16h104V530.6z M423.1,210.2
		c-20.2-2.2-35.5-19.2-35.6-39.6v-56h19.7l12.4,18.6L423.1,210.2z M163.5,82.6h240v16h-240V82.6z M159.7,114.6h19.7v56
		c-0.1,20.3-15.4,37.4-35.6,39.6l3.5-77L159.7,114.6z"/>
</g>
<g>
	<path class="st0" d="M145.1,626c0,7.8-5,13.9-18,13.9h-23.5v-47.6h20.7c13.8,0,18.1,5.5,18.1,13.1c0,4.9-3.4,8.3-4.5,9.1
		C142.6,616.8,145.1,620.9,145.1,626z M131.5,606.8c0-3.2-2.1-4.8-6.5-4.8h-9.9v9.9h9.9C130,612,131.5,610.5,131.5,606.8z
		 M125.8,620.7h-10.6v9.2h10.6c4.6,0,6.9-1.5,6.9-4.6C132.7,621.9,130.3,620.7,125.8,620.7z"/>
	<path class="st0" d="M199.2,616.1c0,13.6-11.1,24.6-24.6,24.6c-13.7,0-24.6-11.1-24.6-24.6c0-13.5,10.9-24.6,24.6-24.6
		C188.2,591.4,199.2,602.5,199.2,616.1z M160.6,616.1c0,7.8,6.3,14,14.1,14c7.6,0,13.9-6.2,13.9-14c0-7.7-6.3-13.9-13.9-13.9
		C166.9,602.1,160.6,608.4,160.6,616.1z"/>
	<path class="st0" d="M246.9,602.9H230v37h-11.6v-37h-16.9v-10.6h45.4V602.9z"/>
	<path class="st0" d="M297.3,602.9h-16.9v37h-11.6v-37h-16.9v-10.6h45.4V602.9z"/>
	<path class="st0" d="M348.4,616.1c0,13.6-11.1,24.6-24.6,24.6c-13.7,0-24.6-11.1-24.6-24.6c0-13.5,10.9-24.6,24.6-24.6
		C337.3,591.4,348.4,602.5,348.4,616.1z M309.7,616.1c0,7.8,6.3,14,14.1,14c7.6,0,13.9-6.2,13.9-14c0-7.7-6.3-13.9-13.9-13.9
		C316,602.1,309.7,608.4,309.7,616.1z"/>
	<path class="st0" d="M414.6,639.9h-11.6v-24.3l-11.4,24.3h-12.8l-11.4-24.3v24.3h-11.5v-47.6h12.7l16.6,34.9l16.5-34.9h12.8V639.9z
		"/>
	<path class="st0" d="M462.1,607.3h-11.4c0-2.4-2.8-5.6-7.7-5.6c-3.4,0-7.6,1.5-7.6,4.3c0,2.3,3.2,3.2,9.9,5c7.5,2,18.1,4.5,18.1,15
		c0,9.1-8,14.8-19.1,14.8c-14.9,0-21.1-10.1-21.1-17.5h11.4c0,0,0.9,7.6,10.4,7.6c5.1,0,7-2.2,7-4.2c0-3-4-4.1-8.4-5.1
		c-7.1-1.7-19.7-4.3-19.7-14.9c0-8.7,8.5-15.1,19.4-15.1C455.5,591.4,462.1,599.9,462.1,607.3z"/>
</g>
</svg>
