<?xml version="1.0" encoding="utf-8"?>
<!-- Generator: Adobe Illustrator 23.0.0, SVG Export Plug-In . SVG Version: 6.00 Build 0)  -->
<svg version="1.1" id="GD001" xmlns="http://www.w3.org/2000/svg" xmlns:xlink="http://www.w3.org/1999/xlink" x="0px" y="0px"
	 viewBox="0 0 566.9 680.3" style="enable-background:new 0 0 566.9 680.3;" xml:space="preserve">
<style type="text/css">
	.st0{fill:#FFFFFF;}
</style>
<g>
	<path class="st0" d="M99.5,510v28.7c0,4.4,3.6,8,8,8h72c4.4,0,8-3.6,8-8v-24h192v24c0,4.4,3.6,8,8,8h72c4.4,0,8-3.6,8-8V510
		l13.7-13.7c1.6-1.6,2.4-3.7,2.3-5.9L476,222.6c-0.5-15.2-8-29.3-20.5-38L403,147.8c0.3-1.6,0.5-3.2,0.5-4.8v-10.2
		c0-13.7-10.6-25.1-24.3-26c-4.5-23.2-24.7-40-48.4-40.1h-94.7c-23.6,0.1-43.9,16.9-48.4,40.1c-13.7,1-24.3,12.3-24.3,26v10.2
		c0,1.6,0.2,3.2,0.5,4.8l-52.6,36.8c-12.4,8.7-20,22.8-20.5,38l-7.4,267.9c-0.1,2.2,0.8,4.3,2.3,5.9L99.5,510z M171.5,530.7h-56v-16
		h56V530.7z M381.2,498.7H185.7l-4-16h203.5L381.2,498.7z M451.5,530.7h-56v-16h56V530.7z M371.4,124.6c4.5-3.3,10.8-2.3,14.1,2.2
		c1.3,1.7,1.9,3.8,1.9,5.9v10.2c0,4-2.3,7.6-5.9,9.2l-73.3,33.3l-10.7-7.2L371.4,124.6z M236.1,82.7h94.7
		c16.3,0,30.2,11.8,32.8,27.9c-0.5,0.3-1.1,0.7-1.6,1.1l-13.6,9.9c-7.1-11.1-18.3-19-31.2-21.8l-3.3,15.7c9.1,2,16.9,7.6,21.6,15.6
		l-51.9,37.8L231.5,131c4.7-8,12.5-13.6,21.6-15.6l-3.3-15.7c-12.9,2.8-24.2,10.7-31.2,21.8l-13.6-9.9c-0.5-0.4-1.1-0.7-1.6-1.1
		C206,94.6,219.8,82.7,236.1,82.7z M179.5,132.8c0-5.6,4.5-10.1,10.1-10.1c2.1,0,4.2,0.7,5.9,1.9l73.9,53.8l-10.7,7.2l-73.3-33.3
		c-3.6-1.6-5.9-5.2-5.9-9.2V132.8z M106.9,223.1c0.3-10.1,5.4-19.5,13.6-25.3l51.1-35.8c2.1,2,4.5,3.6,7.2,4.8l72.7,33v106.8h16V199
		l16-10.7l16,10.7v107.7h16V199.9l72.7-33c2.6-1.2,5.1-2.8,7.2-4.8l51.1,35.8c8.3,5.8,13.3,15.2,13.6,25.3l7.3,264.4l-11.2,11.2
		h-58.4l5.5-22.1c0.2-0.6,0.2-1.3,0.2-1.9V307.6l15.8-71.1l-15.6-3.5l-9.7,43.8l-6.9-20.6l-15.2,5.1l15.6,46.8v158.7h-208V308
		l15.6-46.8l-15.2-5.1l-6.9,20.6l-9.7-43.8l-15.6,3.5l15.8,71.1v167.1c0,0.7,0.1,1.3,0.2,1.9l5.5,22.1h-58.4l-11.2-11.2L106.9,223.1
		z"/>
	<path class="st0" d="M227.5,442.7h112c13.2,0,24-10.8,24-24v-8c0-3-1.7-5.8-4.4-7.2l-3.4-1.7c-14.9-7.4-24.3-22.6-24.2-39.2
		c0-4.4-3.6-8-8-8h-80c-4.4,0-8,3.6-8,8c0.1,16.6-9.3,31.8-24.2,39.2l-3.4,1.7c-2.7,1.4-4.4,4.1-4.4,7.2v8
		C203.5,432,214.2,442.7,227.5,442.7z M219.5,415.6c17.2-8.9,28.9-25.7,31.5-44.9H316c2.5,19.2,14.3,36,31.5,44.9v3.1
		c0,4.4-3.6,8-8,8h-112c-4.4,0-8-3.6-8-8V415.6z"/>
</g>
<g>
	<path class="st0" d="M190.8,639.9h-11.6v-18.5h-20.9v18.5h-11.5v-47.6h11.5v18.5h20.9v-18.5h11.6V639.9z"/>
	<path class="st0" d="M247.5,616.1c0,13.6-11.1,24.6-24.6,24.6c-13.7,0-24.6-11.1-24.6-24.6c0-13.5,10.9-24.6,24.6-24.6
		C236.4,591.4,247.5,602.5,247.5,616.1z M208.8,616.1c0,7.8,6.3,14,14.1,14c7.6,0,13.9-6.2,13.9-14c0-7.7-6.3-13.9-13.9-13.9
		C215.1,602.1,208.8,608.4,208.8,616.1z"/>
	<path class="st0" d="M301.1,616.1c0,13.6-11.1,24.6-24.6,24.6c-13.7,0-24.6-11.1-24.6-24.6c0-13.5,10.9-24.6,24.6-24.6
		C290,591.4,301.1,602.5,301.1,616.1z M262.4,616.1c0,7.8,6.3,14,14.1,14c7.6,0,13.9-6.2,13.9-14c0-7.7-6.3-13.9-13.9-13.9
		C268.7,602.1,262.4,608.4,262.4,616.1z"/>
	<path class="st0" d="M354.8,616c0,13.9-10.3,23.9-25.1,23.9h-21.1v-47.5l21.1-0.1C345.4,592.2,354.8,602.3,354.8,616z M320.1,629.2
		h9.6c8,0,13.5-5.3,13.5-13.2c0-8.5-5.4-13.1-13.5-13.1h-9.6V629.2z"/>
	<path class="st0" d="M374.4,639.9h-11.5v-47.6h11.5V639.9z"/>
	<path class="st0" d="M421.5,592.3v10.6h-25v8.2h20.9v9.9h-20.9v8.2h25v10.6H385v-47.6H421.5z"/>
</g>
</svg>
