<?xml version="1.0" encoding="utf-8"?>
<!-- Generator: Adobe Illustrator 23.0.0, SVG Export Plug-In . SVG Version: 6.00 Build 0)  -->
<svg version="1.1" id="GD001" xmlns="http://www.w3.org/2000/svg" xmlns:xlink="http://www.w3.org/1999/xlink" x="0px" y="0px"
	 viewBox="0 0 566.9 680.3" style="enable-background:new 0 0 566.9 680.3;" xml:space="preserve">
<style type="text/css">
	.st0{fill:#FFFFFF;}
</style>
<g>
	<path class="st0" d="M175.6,619.3c0,12.8-6.2,21.4-19.1,21.4c-10.6,0-19.1-8.6-19.1-20.9h11.5c0,6.8,2.9,10.3,7.6,10.3
		c4.8,0,7.6-3.5,7.6-10.8v-27h11.6V619.3z"/>
	<path class="st0" d="M214.8,632.4h-23l-3.2,7.4h-12.2l20.4-47.6h12.8l20.4,47.6h-12.3L214.8,632.4z M210.8,623.1l-7.4-17.8
		l-7.6,17.8H210.8z"/>
	<path class="st0" d="M279.1,628.3c-4.3,7.1-12.2,12.4-22.3,12.4c-14.9,0-25.8-10.9-25.8-25c0-13.2,10.9-24.3,25.8-24.3
		c10.2,0,18.1,4.8,22.4,11.9l-9.7,5.7c-2.2-4.3-6.7-7.2-12.7-7.2c-8.3,0-14.1,6.1-14.1,13.9c0,7.6,5.8,14.2,14.1,14.2
		c5.9,0,10.2-3,12.5-7.2L279.1,628.3z"/>
	<path class="st0" d="M314.5,611.4l19.9,28.4h-14.9l-13-19.7l-8.2,9v10.7h-11.5v-47.6h11.5v20.9l18.2-20.9h14.4L314.5,611.4z"/>
	<path class="st0" d="M378,592.3v10.6h-25v8.2h20.9v9.9H353v8.2h25v10.6h-36.5v-47.6H378z"/>
	<path class="st0" d="M429.9,602.9H413v37h-11.6v-37h-16.9v-10.6h45.4V602.9z"/>
</g>
<path class="st0" d="M98.5,191.1L83.5,522.3c-0.1,2.2,0.7,4.4,2.3,6l16,16c1.5,1.5,3.5,2.3,5.7,2.3h352c2.1,0,4.2-0.8,5.7-2.3l16-16
	c1.6-1.6,2.4-3.8,2.3-6l-15.1-331.2c-0.7-15.6-9-29.9-22.2-38.3l-67-42.6c-1.9-20.7-16.7-38-36.9-43l-1-0.2
	c-0.6-0.2-1.3-0.2-1.9-0.2l0,0h-112l0,0c-0.7,0-1.3,0.1-1.9,0.2l-1,0.2c-20.2,5-35,22.3-36.9,43l-67,42.6
	C107.5,161.2,99.2,175.5,98.5,191.1z M110.8,530.7l-11.2-11.2l1.3-28.8h62.5v16c0,0.7,0.1,1.3,0.2,1.9l5.5,22.1H110.8z M275.5,530.7
	h-89.8l-4-16h93.8V530.7z M381.2,530.7h-89.8v-16h93.8L381.2,530.7z M283.5,168.8l-27.1-54.1h54.1L283.5,168.8z M467.3,519.6
	l-11.2,11.2h-58.4l5.5-22.1c0.2-0.6,0.2-1.3,0.2-1.9v-16H466L467.3,519.6z M373.2,125.3l64.4,41c8.8,5.6,14.3,15.1,14.8,25.5
	l12.9,282.9h-61.8V283.6l15.8-71.1l-15.6-3.5l-9.7,43.8l-6.9-20.6l-15.2,5.1l15.6,46.8v214.7h-96V196.4c1.1,0.1,2.3,0.1,3.4,0.1
	c4.3,0,8.5-0.6,12.6-1.8v88h16v-96.6c2.2-1.9,4.2-3.9,6.1-6.2L373.2,125.3z M343.6,84.4c11.2,4.8,18.8,15.5,19.8,27.6L317,170
	c-5.3,6.5-13.1,10.4-21.5,10.6L343.6,84.4z M326.5,82.7l-8,16h-70.1l-8-16H326.5z M223.4,84.4l48.1,96.1
	c-8.4-0.2-16.3-4.1-21.5-10.6L203.6,112C204.5,99.9,212.2,89.2,223.4,84.4z M129.3,166.3l64.4-41l43.7,54.6c1.8,2.3,3.8,4.3,6.1,6.2
	v96.6h16v-88c4.1,1.2,8.3,1.8,12.6,1.8c1.1,0,2.3,0,3.4-0.1v302.3h-96V284l15.6-46.8l-15.2-5.1l-6.9,20.6l-9.7-43.8l-15.6,3.5
	l15.8,71.1v191.1h-61.8l12.9-282.9C115,181.4,120.5,171.9,129.3,166.3z"/>
</svg>
