<?xml version="1.0" encoding="utf-8"?>
<!-- Generator: Adobe Illustrator 24.1.2, SVG Export Plug-In . SVG Version: 6.00 Build 0)  -->
<svg version="1.1" id="Layer_1" xmlns="http://www.w3.org/2000/svg" xmlns:xlink="http://www.w3.org/1999/xlink" x="0px" y="0px"
	 viewBox="0 0 200 200" style="enable-background:new 0 0 200 200;" xml:space="preserve">
<style type="text/css">
	.st0{fill:#F05124;}
</style>
<g id="gradient_4_">
	<path class="st0" d="M159.7,96.1l-7.2-2.4l-5-32.5v-6.4c0-5.1-3.3-9.7-8.2-11.3L135.6,24c-0.2-1.3-1.3-2.1-2.6-2.1h-15.8
		c-1.3,0-2.3,0.9-2.6,2.1L111,43h-3.1v-2.6c0-4.4-3.5-7.9-7.9-7.9s-7.9,3.5-7.9,7.9V43H89l-3.6-19c-0.2-1.3-1.3-2.1-2.6-2.1H67
		c-1.3,0-2.4,0.9-2.6,2.1l-3.6,19.5c-4.9,1.6-8.2,6.1-8.2,11.3v6.4l-5,32.5l-7.2,2.4c-10.1,3.3-16.8,12.8-16.8,23.3v31
		c0,10.7,8.1,19.7,18.7,20.9l5.3,0.6c1.1,4.8,5.4,8.1,10.3,8.1h84.4c4.9,0,9.2-3.4,10.3-8.1l5.3-0.6c10.7-1.2,18.8-10.2,18.7-20.9
		v-31C176.5,108.9,169.7,99.5,159.7,96.1z M171.1,117.9c-5.8,2.6-12,4.1-18.4,4.3V99.4l5.2,1.7C165.3,103.6,170.5,110.1,171.1,117.9
		L171.1,117.9z M119.4,27.2h11.4l2.9,15.8h-17.4L119.4,27.2z M97.4,40.4c0-1.5,1.2-2.6,2.6-2.6c1.5,0,2.6,1.2,2.6,2.6V43h-5.3V40.4z
		 M69.1,27.2h11.4l3,15.8H66.2L69.1,27.2z M64.4,48.3h71.2c3.6,0,6.6,3,6.6,6.6v4H57.8v-4C57.8,51.2,60.7,48.3,64.4,48.3z
		 M110.5,64.1v5.3H89.5v-5.3H110.5z M89.5,111.6V95.7h21.1v15.8H89.5z M110.5,90.5H89.5V74.6h21.1V90.5z M84.2,124.7h-7.9v-7.9h7.9
		V124.7z M76.3,130h7.9v17.1c0,2.2-1.8,4-4,4s-4-1.8-4-4V130z M89.5,116.8h21.1v21.1H89.5V116.8z M115.8,130h7.9v17.1
		c0,2.2-1.8,4-4,4s-4-1.8-4-4V130z M123.7,124.7h-7.9v-7.9h7.9V124.7z M84.2,111.6h-7.9V64.1h7.9V111.6z M71,90.4
		c-3-0.3-5.3-2.9-5.3-5.9v-9.9H71V90.4z M71,137.3c-3.2-1.3-5.3-4.5-5.3-7.9v-9.2c0-1.8,1.5-3.3,3.3-3.3h2V137.3z M65.7,140.2
		c1.5,1.2,3.4,2.1,5.3,2.6v4.4c0,5.1,4.1,9.2,9.2,9.2c5.1,0,9.2-4.1,9.2-9.2l0,0v-4h21.1v4c0,5.1,4.1,9.2,9.2,9.2s9.2-4.1,9.2-9.2
		l0,0v-4.4c1.9-0.5,3.7-1.4,5.3-2.6v18.1c0,1.8-1.5,3.3-3.3,3.3H69c-1.8,0-3.3-1.5-3.3-3.3V140.2z M134.3,129.4
		c0,3.5-2.1,6.6-5.3,7.9v-20.4h2c1.8,0,3.3,1.5,3.3,3.3V129.4z M129,74.6h5.3v9.9c0,3-2.3,5.6-5.3,5.9V74.6z M123.7,111.6h-7.9V64.1
		h7.9V111.6z M42,101.1l5.2-1.7v22.7c-6.4-0.2-12.6-1.6-18.4-4.3C29.5,110.1,34.7,103.6,42,101.1z M28.8,150.5v-26.9
		c5.9,2.4,12.1,3.7,18.5,3.8v39.3l-4.4-0.5C34.8,165.3,28.8,158.5,28.8,150.5z M142.2,174.9H57.8c-2.9,0-5.3-2.4-5.3-5.3V95.9
		l4.9-31.8H71v5.3h-7.9c-1.5,0-2.6,1.2-2.6,2.6v12.5c0,5.9,4.6,10.8,10.5,11.2v15.9h-2c-4.7,0-8.6,3.8-8.6,8.6v38.2
		c0,4.7,3.8,8.6,8.6,8.6h62c4.7,0,8.6-3.8,8.6-8.6v-38.2c0-4.7-3.8-8.6-8.6-8.6h-2V95.7c5.9-0.4,10.5-5.2,10.5-11.2V72
		c0-1.5-1.2-2.6-2.6-2.6H129v-5.3h13.5l4.9,31.8v73.6C147.5,172.5,145.1,174.9,142.2,174.9z M157.2,166.2l-4.4,0.5v-39.3
		c6.3-0.2,12.6-1.5,18.5-3.8v26.9C171.2,158.5,165.1,165.3,157.2,166.2z"/>
</g>
</svg>
