<?xml version="1.0" encoding="utf-8"?>
<!-- Generator: Adobe Illustrator 24.1.2, SVG Export Plug-In . SVG Version: 6.00 Build 0)  -->
<svg version="1.1" id="Layer_1" xmlns="http://www.w3.org/2000/svg" xmlns:xlink="http://www.w3.org/1999/xlink" x="0px" y="0px"
	 viewBox="0 0 200 200" style="enable-background:new 0 0 200 200;" xml:space="preserve">
<style type="text/css">
	.st0{fill:#F05124;}
	.st1{fill:#ED4F2B;}
	.st2{fill:#EC2227;}
	.st3{fill:#CF2127;}
	.st4{fill:#FFFFFF;}
</style>
<path class="st0" d="M100,19.2c-44.6,0-80.8,36.3-80.8,80.8s36.3,80.8,80.8,80.8c44.6,0,80.8-36.3,80.8-80.8S144.6,19.2,100,19.2z
	 M52.4,155.1c0.3-26,21.5-47.1,47.6-47.1c26.1,0,47.3,21.1,47.6,47.1c-12.8,11.1-29.4,17.8-47.6,17.8
	C81.8,172.8,65.2,166.1,52.4,155.1z M76.2,75.3c0-13.1,10.7-23.8,23.8-23.8c13.1,0,23.8,10.7,23.8,23.8c0,13.1-10.7,23.8-23.8,23.8
	C86.9,99.1,76.2,88.4,76.2,75.3z M155.7,146.8c-1.8-11.8-7.3-22.6-15.8-31.2c-6.1-6.1-13.5-10.7-21.4-13.4
	c8.5-5.9,14.2-15.7,14.2-26.9c0-18-14.6-32.6-32.6-32.6c-18,0-32.6,14.6-32.6,32.6c0,11.1,5.6,21,14.2,26.9
	c-8,2.8-15.3,7.3-21.4,13.4c-8.6,8.6-14,19.4-15.8,31.2c-10.7-12.7-17.1-29-17.1-46.8c0-40.2,32.7-72.8,72.8-72.8
	c40.2,0,72.8,32.7,72.8,72.8C172.8,117.8,166.4,134.1,155.7,146.8z"/>
</svg>
