<?xml version="1.0" encoding="utf-8"?>
<!-- Generator: Adobe Illustrator 24.1.2, SVG Export Plug-In . SVG Version: 6.00 Build 0)  -->
<svg version="1.1" id="Layer_1" xmlns="http://www.w3.org/2000/svg" xmlns:xlink="http://www.w3.org/1999/xlink" x="0px" y="0px"
	 viewBox="0 0 200 200" style="enable-background:new 0 0 200 200;" xml:space="preserve">
<style type="text/css">
	.st0{fill:#F05124;}
</style>
<path class="st0" d="M37.4,60.9l-5.1,112c0,0.7,0.2,1.5,0.8,2l5.4,5.4c0.5,0.5,1.2,0.8,1.9,0.8h119c0.7,0,1.4-0.3,1.9-0.8l5.4-5.4
	c0.5-0.5,0.8-1.3,0.8-2l-5.1-112c-0.2-5.3-3-10.1-7.5-13l-22.7-14.4c-0.6-7-5.6-12.9-12.5-14.5l-0.3-0.1c-0.2-0.1-0.4-0.1-0.6-0.1
	l0,0H81l0,0c-0.2,0-0.4,0-0.6,0.1L80,19c-6.8,1.7-11.8,7.5-12.5,14.5L44.9,48C40.5,50.8,37.7,55.6,37.4,60.9z M41.6,175.8l-3.8-3.8
	l0.4-9.7h21.1v5.4c0,0.2,0,0.4,0.1,0.6l1.9,7.5H41.6z M97.3,175.8H66.9l-1.4-5.4h31.7V175.8z M133,175.8h-30.4v-5.4h31.7L133,175.8z
	 M100,53.4l-9.2-18.3h18.3L100,53.4z M162.2,172l-3.8,3.8h-19.8l1.9-7.5c0.1-0.2,0.1-0.4,0.1-0.6v-5.4h21.2L162.2,172z M130.3,38.7
	l21.8,13.9c3,1.9,4.8,5.1,5,8.6l4.4,95.7h-20.9V92.2l5.3-24l-5.3-1.2l-3.3,14.8l-2.3-7l-5.1,1.7l5.3,15.8V165h-32.5V62.7
	c0.4,0,0.8,0,1.1,0c1.5,0,2.9-0.2,4.3-0.6v29.8h5.4V59.2c0.7-0.6,1.4-1.3,2.1-2.1L130.3,38.7z M120.3,24.8c3.8,1.6,6.4,5.2,6.7,9.3
	l-15.7,19.6c-1.8,2.2-4.4,3.5-7.3,3.6L120.3,24.8z M114.5,24.2l-2.7,5.4H88.1l-2.7-5.4H114.5z M79.7,24.8l16.3,32.5
	c-2.8-0.1-5.5-1.4-7.3-3.6L73,34.2C73.3,30.1,75.9,26.4,79.7,24.8z M47.9,52.5l21.8-13.9l14.8,18.5c0.6,0.8,1.3,1.5,2.1,2.1v32.7
	h5.4V62.1c1.4,0.4,2.8,0.6,4.3,0.6c0.4,0,0.8,0,1.1,0v102.2H64.8V92.3l5.3-15.8L65,74.8l-2.3,7l-3.3-14.8l-5.3,1.2l5.3,24v64.6H38.5
	l4.4-95.7C43,57.6,44.9,54.4,47.9,52.5z"/>
</svg>
