<?xml version="1.0" encoding="utf-8"?>
<!-- Generator: Adobe Illustrator 24.1.2, SVG Export Plug-In . SVG Version: 6.00 Build 0)  -->
<svg version="1.1" id="Layer_1" xmlns="http://www.w3.org/2000/svg" xmlns:xlink="http://www.w3.org/1999/xlink" x="0px" y="0px"
	 viewBox="0 0 200 200" style="enable-background:new 0 0 200 200;" xml:space="preserve">
<style type="text/css">
	.st0{fill:#F05124;}
</style>
<g id="gradient_2_">
	<path class="st0" d="M88.5,29.1V28h5.5v1.1c0,3,2.5,5.5,5.5,5.5s5.5-2.5,5.5-5.5V28h5.5v1.1c0,6.1-5,11.1-11.1,11.1
		C93.5,40.2,88.5,35.2,88.5,29.1z M182.3,125.8c0.3,1.2,0.4,2.4,0.2,3.6l-5.3,40.1v10.9c0,1.5-1.2,2.8-2.8,2.8h-19.4
		c-1.5,0-2.8-1.2-2.8-2.8v-11l-2.7-33l-2.8-16.7v46.2c0,3.2-2.4,5.9-5.5,6.2v8.3c0,1.5-1.2,2.8-2.8,2.8H60.9c-1.5,0-2.8-1.2-2.8-2.8
		V172c-3.2-0.3-5.5-3-5.5-6.2V160l-2.2-2.9c-0.1-0.1-0.1-0.2-0.2-0.3l-30.4-35.4c-2.2-2.5-2.9-6-1.9-9.2l12.7-40.7
		c0.1-0.2,0.2-0.5,0.3-0.7l16.6-24.9l0,0c0.3-0.5,0.7-0.8,1.2-1l28.8-12c0.4-8.9,7.7-15.9,16.6-15.9h11.1c9.2,0,16.6,7.4,16.6,16.6
		c0,0.1,0,0.1,0,0.2l28.7,11c0.5,0.2,1,0.6,1.3,1l0,0l16.6,24.9c0.2,0.3,0.3,0.6,0.4,0.9L182.3,125.8z M116.8,42.9
		c-3.1,5.3-8.5,9-14.7,9.8l0.3,113.8h19.4v-4.6l-10.5-13.1c-0.8-1-0.8-2.5,0-3.5l9.7-12.1l-9.7-12.1c-0.8-1-0.8-2.5,0-3.5l9.7-12.1
		l-9.7-12.1c-0.8-1-0.8-2.5,0-3.5l9.7-12.1l-9.7-12.1c-0.8-1-0.8-2.5,0-3.5l10.9-13.6l3.7-7.4l-6.7-2.6L116.8,42.9z M124.6,101.1
		l7.5-9.4l-7.5-9.4l-7.5,9.4L124.6,101.1z M124.6,110l-7.5,9.4l7.5,9.4l7.5-9.4L124.6,110z M124.6,73.4l7.5-9.4l-7.5-9.4L117,64
		L124.6,73.4z M83,32.9l3.2,6.4c3.6,7.2,12.4,10.2,19.7,6.5c2.6-1.3,4.7-3.3,6.1-5.7l4.3-7.3c-0.4-5.8-5.2-10.4-11-10.4H94.1
		C88.2,22.4,83.4,27,83,32.9z M52.7,49.1L54,64.3v0l4.1,46.5c0,0.1,0,0.2,0,0.2v12l8.6,15.9l4.5-5.7l-9.7-12.1c-0.8-1-0.8-2.5,0-3.5
		l9.7-12.1l-9.7-12.1c-0.8-1-0.8-2.5,0-3.5l9.7-12.1l-9.7-12.1c-0.8-1-0.8-2.5,0-3.5l10-12.5l-3.5-7L52.7,49.1z M74.7,128.8l7.5-9.4
		l-7.5-9.4l-7.5,9.4L74.7,128.8z M74.7,137.7l-5.1,6.3l7.3,9.7l5.3-6.6L74.7,137.7z M74.7,101.1l7.5-9.4l-7.5-9.4l-7.5,9.4
		L74.7,101.1z M74.7,73.4l7.5-9.4l-7.5-9.4L67.1,64L74.7,73.4z M51.9,103.9l-1.8,4.3l2.5,4.6v-1.6L51.9,103.9z M38.5,105.1
		c-1.4,3.6-0.9,7.6,1.2,10.8l20.1,30.2l3.1-2.4l-18.3-34c-0.4-0.7-0.5-1.6-0.1-2.4l6.4-15l-1.4-15.6L38.5,105.1z M55.4,149.5
		l-2.4-3.6l-18-26.9c-3.1-4.7-3.8-10.6-1.7-15.9l15.1-38.9l-0.8-8.6l-12,18l-12.6,40.2c-0.5,1.4-0.1,2.9,0.8,3.9l29,33.7L55.4,149.5
		z M61.4,162.5l9.5-7.6l-5-6.6l-9.5,7.6L61.4,162.5z M69.2,172h-5.5v5.5h5.5V172z M71.9,161.9l-0.4-0.5l-6.3,5h6.6L71.9,161.9
		L71.9,161.9z M80.2,172h-5.5v5.5h5.5V172z M91.3,172h-5.5v5.5h5.5V172z M96.9,166.5L96.5,52.7c-6.6-0.9-12.3-5-15.3-11l-1.9-3.7
		L73,40.7l4,8l10.9,13.6c0.8,1,0.8,2.5,0,3.5l-9.7,12.1L87.9,90c0.8,1,0.8,2.5,0,3.5l-9.7,12.1l9.7,12.1c0.8,1,0.8,2.5,0,3.5
		l-9.7,12.1l9.7,12.1c0.8,1,0.8,2.5,0,3.5l-10.5,13.1v4.6H96.9z M102.4,172h-5.5v5.5h5.5V172z M113.5,172h-5.5v5.5h5.5V172z
		 M124.6,172H119v5.5h5.5V172z M124.6,156.5l7.5-9.4l-7.5-9.4l-7.5,9.4L124.6,156.5z M135.6,172h-5.5v5.5h5.5V172z M146.5,49.2
		l-15.4-6l-3.3,6.5l10,12.5c0.8,1,0.8,2.5,0,3.5l-9.7,12.1l9.7,12.1c0.8,1,0.8,2.5,0,3.5l-9.7,12.1l9.7,12.1c0.8,1,0.8,2.5,0,3.5
		l-9.7,12.1l9.7,12.1c0.8,1,0.8,2.5,0,3.5l-10.5,13.1v4.6h13.2c0.4,0,0.7-0.3,0.7-0.7v-54.7c0-0.1,0-0.2,0-0.2l1.4-16.3
		c0,0,0,0,0-0.1L146.5,49.2z M157.6,166.5h5.6l-2-43.1c-0.4-7.8-2-15.4-4.9-22.6l-7.1-17.7l-1,11.5l6.8,41c0,0.1,0,0.1,0,0.2
		L157.6,166.5z M171.6,172h-13.9v5.5h13.9V172z M177,127.1l-13.4-53.7l-12-18l-1.4,15.4l11.1,27.9c3.1,7.8,4.9,16,5.3,24.4l2.1,43.4
		h3.3l5.1-37.8C177.1,128.1,177.1,127.6,177,127.1z"/>
</g>
</svg>
