<?xml version="1.0" encoding="utf-8"?>
<!-- Generator: Adobe Illustrator 24.1.2, SVG Export Plug-In . SVG Version: 6.00 Build 0)  -->
<svg version="1.1" id="Layer_1" xmlns="http://www.w3.org/2000/svg" xmlns:xlink="http://www.w3.org/1999/xlink" x="0px" y="0px"
	 viewBox="0 0 200 200" style="enable-background:new 0 0 200 200;" xml:space="preserve">
<style type="text/css">
	.st0{fill:#F05124;}
</style>
<g id="gradient_3_">
	<path class="st0" d="M28,80.6l21.7,13.6c1.3,0.8,3,0.4,3.7-0.8l0,0l3.1-5.2v90.6c0,1.5,1.2,2.7,2.7,2.7l0,0h81.4
		c1.5,0,2.7-1.2,2.7-2.7V88.1l3.1,5.2c0.8,1.3,2.4,1.7,3.7,0.9l0,0L172,80.5c1.1-0.7,1.6-2.1,1.1-3.3L159.4,43
		c-1.9-4.8-5.8-8.7-10.6-10.6l-7.1-2.8c0,0-24.9-11-24.9-11c-0.1,0-33.9,0-34,0.1L58.2,29.6l-7.1,2.8c-4.8,1.9-8.7,5.8-10.6,10.6
		L26.9,77.3C26.5,78.5,26.9,79.9,28,80.6L28,80.6z M138,176H62v-5.4h76V176z M119,25.5l5.4,2.4c-0.6,13.5-12.1,23.9-25.5,23.2
		c-12.6-0.6-22.7-10.7-23.2-23.2l5.4-2.4v1.3c0,10.5,8.5,19,19,19s19-8.5,19-19L119,25.5L119,25.5z M113.6,24v2.7
		c0,7.5-6.1,13.6-13.6,13.6c-7.5,0-13.6-6.1-13.6-13.6V24L113.6,24z M45.7,45.1c1.4-3.5,4.1-6.2,7.6-7.6l7.1-2.8c0,0,0.1,0,0.1,0
		l10-4.4c1.9,16.4,16.8,28.1,33.1,26.2c13.7-1.6,24.6-12.4,26.2-26.2l10,4.4c0,0,0.1,0,0.1,0l7.1,2.8c3.5,1.4,6.2,4.1,7.6,7.6
		l12.9,32.1l-17.4,10.9l-3.4-5.7l12-7.2c1.3-0.8,1.7-2.4,0.9-3.7c-0.8-1.3-2.4-1.7-3.7-0.9l-12,7.2l-0.5-0.9
		c-0.8-1.3-2.4-1.7-3.7-0.9c-0.8,0.5-1.3,1.4-1.3,2.3v86.8h-76V78.3c0-1.5-1.2-2.7-2.7-2.7c-0.9,0-1.8,0.5-2.3,1.3l-0.5,0.9l-12-7.2
		c-1.3-0.8-3-0.3-3.7,0.9c-0.8,1.3-0.3,3,0.9,3.7l0,0l12,7.2l-3.4,5.7L32.9,77.2L45.7,45.1z"/>
</g>
</svg>
