<?xml version="1.0" encoding="utf-8"?>
<!-- Generator: Adobe Illustrator 24.1.2, SVG Export Plug-In . SVG Version: 6.00 Build 0)  -->
<svg version="1.1" id="Layer_1" xmlns="http://www.w3.org/2000/svg" xmlns:xlink="http://www.w3.org/1999/xlink" x="0px" y="0px"
	 viewBox="0 0 200 200" style="enable-background:new 0 0 200 200;" xml:space="preserve">
<style type="text/css">
	.st0{fill:#F05124;}
</style>
<g>
	<path class="st0" d="M34.9,172v10.2c0,1.6,1.3,2.8,2.8,2.8h25.5c1.6,0,2.8-1.3,2.8-2.8v-8.5h68v8.5c0,1.6,1.3,2.8,2.8,2.8h25.5
		c1.6,0,2.8-1.3,2.8-2.8V172l4.9-4.9c0.6-0.6,0.9-1.3,0.8-2.1l-2.7-94.8c-0.2-5.4-2.8-10.4-7.3-13.5l-18.6-13
		c0.1-0.6,0.2-1.1,0.2-1.7v-3.6c0-4.9-3.8-8.9-8.6-9.2C132.3,21,125.2,15,116.8,15H83.2c-8.4,0-15.5,6-17.1,14.2
		c-4.9,0.4-8.6,4.4-8.6,9.2V42c0,0.6,0.1,1.1,0.2,1.7L39,56.8c-4.4,3.1-7.1,8.1-7.3,13.5l-2.6,94.9c0,0.8,0.3,1.5,0.8,2.1L34.9,172z
		 M60.4,179.3H40.5v-5.7h19.8V179.3z M134.6,168H65.4l-1.4-5.7H136L134.6,168z M159.5,179.3h-19.8v-5.7h19.8V179.3z M131.1,35.5
		c1.6-1.2,3.8-0.8,5,0.8c0.5,0.6,0.7,1.3,0.7,2.1V42c0,1.4-0.8,2.7-2.1,3.3l-26,11.8l-3.8-2.5L131.1,35.5z M83.2,20.7h33.5
		c5.8,0,10.7,4.2,11.6,9.9c-0.2,0.1-0.4,0.2-0.6,0.4l-4.8,3.5c-2.5-3.9-6.5-6.7-11.1-7.7l-1.2,5.6c3.2,0.7,6,2.7,7.7,5.5l-18.4,13.4
		L81.6,37.8c1.7-2.8,4.4-4.8,7.7-5.5l-1.2-5.6c-4.6,1-8.6,3.8-11,7.7l-4.8-3.5c-0.2-0.1-0.4-0.2-0.6-0.4
		C72.6,24.9,77.5,20.7,83.2,20.7z M63.2,38.4c0-2,1.6-3.6,3.6-3.6c0.7,0,1.5,0.2,2.1,0.7L95,54.6l-3.8,2.5l-26-11.8
		c-1.3-0.6-2.1-1.8-2.1-3.3L63.2,38.4L63.2,38.4z M37.5,70.4c0.1-3.6,1.9-6.9,4.8-9l18.1-12.7c0.7,0.7,1.6,1.3,2.5,1.7l25.7,11.7
		V100h5.7V61.9l5.7-3.8l5.7,3.8V100h5.7V62.2l25.7-11.7c0.9-0.4,1.8-1,2.6-1.7l18.1,12.7c2.9,2.1,4.7,5.4,4.8,9l2.6,93.6l-4,4h-20.7
		l1.9-7.8c0.1-0.2,0.1-0.5,0.1-0.7v-59.2l5.6-25.2l-5.5-1.2l-3.4,15.5l-2.4-7.3l-5.4,1.8l5.5,16.6v56.2H63.2v-56.2l5.5-16.6
		l-5.4-1.8l-2.4,7.3l-3.4-15.5l-5.5,1.2l5.6,25.2v59.2c0,0.2,0,0.5,0.1,0.7l1.9,7.8H38.9l-4-4L37.5,70.4z"/>
	<path class="st0" d="M80.2,148.2h39.7c4.7,0,8.5-3.8,8.5-8.5v-2.8c0-1.1-0.6-2.1-1.6-2.6l-1.2-0.6c-5.3-2.6-8.6-8-8.6-13.9
		c0-1.6-1.3-2.8-2.8-2.8H85.9c-1.6,0-2.8,1.3-2.8,2.8c0,5.9-3.3,11.3-8.6,13.9l-1.2,0.6c-1,0.5-1.6,1.5-1.6,2.6v2.8
		C71.7,144.4,75.5,148.2,80.2,148.2z M77.4,138.6c6.1-3.2,10.2-9.1,11.2-15.9h23c0.9,6.8,5.1,12.8,11.2,15.9v1.1
		c0,1.6-1.3,2.8-2.8,2.8H80.2c-1.6,0-2.8-1.3-2.8-2.8V138.6z"/>
</g>
</svg>
