<?xml version="1.0" encoding="utf-8"?>
<!-- Generator: Adobe Illustrator 24.1.2, SVG Export Plug-In . SVG Version: 6.00 Build 0)  -->
<svg version="1.1" id="Layer_1" xmlns="http://www.w3.org/2000/svg" xmlns:xlink="http://www.w3.org/1999/xlink" x="0px" y="0px"
	 viewBox="0 0 200 200" style="enable-background:new 0 0 200 200;" xml:space="preserve">
<style type="text/css">
	.st0{fill:#F05124;}
</style>
<g>
	<g>
		<g>
			<path class="st0" d="M112.1,32.1v17.6c0,3.1,1.3,6.1,3.4,8.2l17.9,17.9c0.8,0.8,2.2,0.2,2.2-0.9V31l21.6-21.2
				c0.7-0.6,1.9-0.1,1.9,0.9v134.2c0,0.6-0.4,1-1,1h-21.4c-0.6,0-1-0.4-1-1v-26.9c0-3-1.2-6-3.4-8.2L92.1,69.6
				c-2.2-2.2-3.4-5.1-3.4-8.2V32.1c0-0.6,0.4-1,1-1h21.4C111.7,31,112.1,31.5,112.1,32.1z"/>
		</g>
	</g>
	<g>
		<g>
			<path class="st0" d="M65.2,42.2V70c0,3.1,1.3,6.1,3.4,8.2l40.5,40.5c2,2,3.1,4.7,3.1,7.6v28c0,1-1.3,1.6-2,0.8L45.1,90.1
				c-2.2-2.2-3.4-5.1-3.4-8.2V42.2c0-0.6,0.5-1.1,1.1-1.1H64C64.7,41.1,65.2,41.6,65.2,42.2z"/>
		</g>
	</g>
	<g>
		<g>
			<path class="st0" d="M75.2,155l-31.5-31.5c-0.8-0.8-2.2-0.2-2.2,0.9v64c0,1,1.3,1.6,1.9,0.8l31.6-30.9
				C76.2,157.4,76.2,155.9,75.2,155z"/>
		</g>
	</g>
</g>
</svg>
