<?xml version="1.0" encoding="utf-8"?>
<!-- Generator: Adobe Illustrator 24.1.2, SVG Export Plug-In . SVG Version: 6.00 Build 0)  -->
<svg version="1.1" id="Layer_1" xmlns="http://www.w3.org/2000/svg" xmlns:xlink="http://www.w3.org/1999/xlink" x="0px" y="0px"
	 viewBox="0 0 200 200" style="enable-background:new 0 0 200 200;" xml:space="preserve">
<style type="text/css">
	.st0{fill:#F05124;}
</style>
<g id="Gradient_outline">
	<path class="st0" d="M48.1,169.2v10.1c0,1.5,1.2,2.7,2.7,2.7h41c1.5,0,2.7-1.2,2.7-2.7v-10.5l2.6-7.8c0.1-0.2,0.1-0.4,0.1-0.7
		l2.7-45.2l2.7,45.2c0,0.2,0.1,0.5,0.1,0.7l2.6,7.8v10.5c0,1.5,1.2,2.7,2.7,2.7h41c1.5,0,2.7-1.2,2.7-2.7v-10.1l5-7.5
		c0.3-0.5,0.5-1.1,0.4-1.6l-5.5-120.3c0-0.5-0.2-1-0.4-1.4l-5-7.5V20.7c0-1.5-1.2-2.7-2.7-2.7H56.3c-1.5,0-2.7,1.2-2.7,2.7v10.1
		l-5,7.5c-0.3,0.4-0.4,0.9-0.4,1.4L42.6,160c0,0.6,0.1,1.2,0.4,1.6L48.1,169.2z M49.2,134.6c17-2.6,32.9-10.3,45.4-22.1l-0.4,7.3
		c-10.7,12.5-31.7,18.9-45.3,21.8L49.2,134.6z M91.8,159.6l-2,6H52.2l-4.2-6.3l0.5-12.1c12.6-2.6,32.3-8.2,45.1-19.2L91.8,159.6z
		 M89.1,176.5H53.5v-5.5h35.5V176.5z M97.3,69.8l-2.1,34.5c-12,13.2-28.1,21.9-45.7,24.8L52,72.6c10-0.6,17.9-9,17.9-19.1V34.4h19.1
		v21.9c0,1.5-1.2,2.7-2.7,2.7h-5.5v5.5h5.5c4.5,0,8.2-3.7,8.2-8.2V34.4h10.9v30.1c0,4.5,3.7,8.2,8.2,8.2h5.5v-5.5h-5.5
		c-1.5,0-2.7-1.2-2.7-2.7V34.4h19.1v19.1c0,10.1,7.8,18.4,17.9,19.1l2.6,56.4c-17.6-2.9-33.7-11.7-45.7-24.8l-2.1-34.4
		c0-1.5-1.2-2.7-2.7-2.7C98.5,67.1,97.3,68.3,97.3,69.8z M151.9,159.4l-4.2,6.3h-37.6l-2-6l-1.9-31.5c12.7,11,32.5,16.6,45.1,19.2
		L151.9,159.4z M105.7,119.9l-0.4-7.3c12.5,11.8,28.4,19.5,45.4,22.1l0.3,7C137.4,138.7,116.4,132.4,105.7,119.9z M146.5,176.5
		h-35.5v-5.5h35.5V176.5z M147.7,67.1c-6.9-0.8-12.1-6.6-12.2-13.5V34.4h6.7l4.2,6.4L147.7,67.1z M59,23.5h82v5.5H59V23.5z
		 M57.7,34.4h6.7v19.1c0,6.9-5.3,12.8-12.2,13.5l1.2-26.3L57.7,34.4z"/>
</g>
</svg>
