<?xml version="1.0" encoding="utf-8"?>
<!-- Generator: Adobe Illustrator 23.0.0, SVG Export Plug-In . SVG Version: 6.00 Build 0)  -->
<svg version="1.1" id="GD001" xmlns="http://www.w3.org/2000/svg" xmlns:xlink="http://www.w3.org/1999/xlink" x="0px" y="0px"
	 viewBox="0 0 566.9 680.3" style="enable-background:new 0 0 566.9 680.3;" xml:space="preserve">
<style type="text/css">
	.st0{fill:#FFFFFF;}
</style>
<g>
	<path class="st0" d="M141.5,607.3h-11.4c0-2.4-2.8-5.6-7.7-5.6c-3.4,0-7.6,1.5-7.6,4.3c0,2.3,3.2,3.2,9.9,5c7.5,2,18.1,4.5,18.1,15
		c0,9.1-8,14.8-19.1,14.8c-14.9,0-21.1-10.1-21.1-17.5h11.4c0,0,0.9,7.6,10.4,7.6c5.1,0,7-2.2,7-4.2c0-3-4-4.1-8.4-5.1
		c-7.1-1.7-19.7-4.3-19.7-14.9c0-8.7,8.5-15.1,19.4-15.1C134.9,591.4,141.5,599.9,141.5,607.3z"/>
	<path class="st0" d="M224.1,592.3l-17.9,47.6h-11.8l-10-31l-11.2,31h-11.9l-15.8-47.6h12.3l9.9,30.9l10.9-30.9h12.5l9.7,30.7
		l11.1-30.7H224.1z"/>
	<path class="st0" d="M268.5,592.3v10.6h-25v8.2h20.9v9.9h-20.9v8.2h25v10.6h-36.5v-47.6H268.5z"/>
	<path class="st0" d="M313.3,632.4h-23l-3.2,7.4H275l20.4-47.6h12.8l20.4,47.6h-12.3L313.3,632.4z M309.3,623.1l-7.4-17.8l-7.6,17.8
		H309.3z"/>
	<path class="st0" d="M369.9,602.9H353v37h-11.6v-37h-16.9v-10.6h45.4V602.9z"/>
	<path class="st0" d="M414.2,592.3v10.6h-25v8.2h20.9v9.9h-20.9v8.2h25v10.6h-36.5v-47.6H414.2z"/>
	<path class="st0" d="M463.5,610.1c0,6.9-3.4,12.7-8.5,15.4l9.8,14.4h-14.3l-7.1-11.8H435v11.8h-11.5v-47.6h23
		C456.2,592.3,463.5,599.7,463.5,610.1z M435,602.9v14.5h9.9c3.9,0,7.1-3.3,7.1-7.3c0-3.9-3.2-7.2-7-7.2H435z"/>
</g>
<g id="gradient_1_">
	<path class="st0" d="M250.4,101.9v-3.2h16v3.2c0,8.8,7.2,16,16,16s16-7.2,16-16v-3.2h16v3.2c0,17.7-14.3,32-32,32
		C264.8,133.9,250.4,119.5,250.4,101.9z M521.3,381.1c0.9,3.4,1.1,7,0.6,10.5l-15.4,115.7v31.5c0,4.4-3.6,8-8,8h-56
		c-4.4,0-8-3.6-8-8V507l-7.9-95.3l-8.1-48.3v133.3c0,9.2-6.9,16.9-16,17.9v24.1c0,4.4-3.6,8-8,8h-224c-4.4,0-8-3.6-8-8v-24.1
		c-9.1-1-16-8.7-16-17.9V480l-6.4-8.5c-0.2-0.3-0.4-0.6-0.6-1L51.6,368.3c-6.3-7.3-8.4-17.4-5.5-26.6l36.7-117.4
		c0.2-0.7,0.6-1.4,1-2.1l48-72l0,0c0.9-1.3,2.1-2.3,3.6-3l83.1-34.6c1.1-25.7,22.2-45.9,47.9-46h32c26.5,0,48,21.5,48,48
		c0,0.2,0,0.4,0,0.6l82.9,31.9c1.5,0.6,2.9,1.7,3.8,3l0,0l48,72c0.5,0.8,0.9,1.6,1.1,2.5L521.3,381.1z M331.9,141.8
		c-9,15.4-24.6,25.9-42.4,28.4l0.9,328.6h56v-13.2l-30.2-37.8c-2.3-2.9-2.3-7.1,0-10l28-35l-28-35c-2.3-2.9-2.3-7.1,0-10l28-35
		l-28-35c-2.3-2.9-2.3-7.1,0-10l28-35l-28-35c-2.3-2.9-2.3-7.1,0-10l31.5-39.3l10.6-21.3l-19.3-7.4L331.9,141.8z M354.4,309.9
		l21.8-27.2l-21.8-27.2l-21.8,27.2L354.4,309.9z M354.4,335.5l-21.8,27.2l21.8,27.2l21.8-27.2L354.4,335.5z M354.4,229.9l21.8-27.2
		l-21.8-27.2l-21.8,27.2L354.4,229.9z M234.5,112.9l9.2,18.4c10.5,20.9,35.9,29.4,56.8,18.9c7.4-3.7,13.5-9.4,17.6-16.5l12.3-21.1
		c-1.1-16.8-15.1-29.9-31.9-30h-32C249.5,82.7,235.5,96,234.5,112.9z M146.9,159.8l3.8,43.7l0,0.1L162.4,338c0,0.2,0,0.5,0,0.7v34.6
		l24.7,45.8l13.1-16.4l-28-35c-2.3-2.9-2.3-7.1,0-10l28-35l-28-35c-2.3-2.9-2.3-7.1,0-10l28-35l-28-35c-2.3-2.9-2.3-7.1,0-10
		l28.8-36l-10.1-20.2L146.9,159.8z M210.4,389.9l21.8-27.2l-21.8-27.2l-21.8,27.2L210.4,389.9z M210.4,415.5l-14.7,18.3l21.1,28.1
		l15.4-19.2L210.4,415.5z M210.4,309.9l21.8-27.2l-21.8-27.2l-21.8,27.2L210.4,309.9z M210.4,229.9l21.8-27.2l-21.8-27.2l-21.8,27.2
		L210.4,229.9z M144.6,318l-5.3,12.3l7.1,13.2v-4.5L144.6,318z M105.8,321.3c-4,10.3-2.7,22,3.4,31.2l58.1,87.2l8.9-7l-52.8-98.1
		c-1.2-2.1-1.3-4.7-0.3-6.9l18.6-43.4l-3.9-45.1L105.8,321.3z M154.7,449.6l-6.9-10.4l-51.9-77.8c-9-13.6-10.9-30.7-5-45.9
		l43.7-112.4l-2.2-24.9l-34.7,52.1L61.4,346.5c-1.3,3.9-0.4,8.3,2.3,11.4l83.7,97.4L154.7,449.6z M171.9,487.3l27.5-22L185,446.1
		l-27.5,22L171.9,487.3z M194.4,514.7h-16v16h16V514.7z M202.4,485.5l-1.1-1.3l-18.1,14.5h19.2V485.5z M226.4,514.7h-16v16h16V514.7
		z M258.4,514.7h-16v16h16V514.7z M274.4,498.7l-0.9-328.5c-19.1-2.6-35.6-14.5-44.2-31.7l-5.4-10.7l-18.3,7.6l11.5,23l31.5,39.3
		c2.3,2.9,2.3,7.1,0,10l-28,35l28,35c2.3,2.9,2.3,7.1,0,10l-28,35l28,35c2.3,2.9,2.3,7.1,0,10l-28,35l28,35c2.3,2.9,2.3,7.1,0,10
		l-30.2,37.8v13.2H274.4z M290.4,514.7h-16v16h16V514.7z M322.4,514.7h-16v16h16V514.7z M354.4,514.7h-16v16h16V514.7z M354.4,469.9
		l21.8-27.2l-21.8-27.2l-21.8,27.2L354.4,469.9z M386.4,514.7h-16v16h16V514.7z M417.9,160l-44.6-17.2l-9.4,18.9l28.8,36
		c2.3,2.9,2.3,7.1,0,10l-28,35l28,35c2.3,2.9,2.3,7.1,0,10l-28,35l28,35c2.3,2.9,2.3,7.1,0,10l-28,35l28,35c2.3,2.9,2.3,7.1,0,10
		l-30.2,37.8v13.2h38c1.1,0,2-0.9,2-2v-158c0-0.2,0-0.5,0-0.7l4.1-47.2c0-0.1,0-0.1,0-0.2L417.9,160z M449.8,498.7H466l-5.9-124.4
		c-1.1-22.4-5.9-44.5-14.2-65.3l-20.4-51.1l-2.9,33.2l19.7,118.3c0,0.2,0.1,0.4,0.1,0.7L449.8,498.7z M490.4,514.7h-40v16h40V514.7z
		 M505.8,385L467,230l-34.6-51.9l-3.9,44.4l32.2,80.5c9,22.5,14.2,46.3,15.3,70.5l6,125.2h9.4L506,389.4
		C506.2,387.9,506.1,386.4,505.8,385z"/>
</g>
</svg>
