<?xml version="1.0" encoding="utf-8"?>
<!-- Generator: Adobe Illustrator 23.0.0, SVG Export Plug-In . SVG Version: 6.00 Build 0)  -->
<svg version="1.1" id="GD001" xmlns="http://www.w3.org/2000/svg" xmlns:xlink="http://www.w3.org/1999/xlink" x="0px" y="0px"
	 viewBox="0 0 566.9 680.3" style="enable-background:new 0 0 566.9 680.3;" xml:space="preserve">
<style type="text/css">
	.st0{fill:#FFFFFF;}
</style>
<g>
	<path class="st0" d="M180.5,602.9h-16.9v37H152v-37h-16.9v-10.6h45.4V602.9z"/>
	<path class="st0" d="M210.7,621.3h-25.8v-10.6h25.8V621.3z"/>
	<path class="st0" d="M256.2,607.3h-11.4c0-2.4-2.8-5.6-7.7-5.6c-3.4,0-7.6,1.5-7.6,4.3c0,2.3,3.2,3.2,9.9,5c7.5,2,18.1,4.5,18.1,15
		c0,9.1-8,14.8-19.1,14.8c-14.9,0-21.1-10.1-21.1-17.5h11.4c0,0,0.9,7.6,10.4,7.6c5.1,0,7-2.2,7-4.2c0-3-4-4.1-8.4-5.1
		c-7.1-1.7-19.7-4.3-19.7-14.9c0-8.7,8.5-15.1,19.4-15.1C249.7,591.4,256.2,599.9,256.2,607.3z"/>
	<path class="st0" d="M309.8,639.9h-11.6v-18.5h-20.9v18.5h-11.5v-47.6h11.5v18.5h20.9v-18.5h11.6V639.9z"/>
	<path class="st0" d="M331.9,639.9h-11.5v-47.6h11.5V639.9z"/>
	<path class="st0" d="M382.5,610.1c0,6.9-3.4,12.7-8.5,15.4l9.8,14.4h-14.3l-7.1-11.8H354v11.8h-11.5v-47.6h23
		C375.2,592.3,382.5,599.7,382.5,610.1z M354,602.9v14.5h9.9c3.9,0,7.1-3.3,7.1-7.3c0-3.9-3.2-7.2-7-7.2H354z"/>
	<path class="st0" d="M431.8,602.9h-16.9v37h-11.6v-37h-16.9v-10.6h45.4V602.9z"/>
</g>
<g id="gradient">
	<path class="st0" d="M71.2,249.4l64,40c3.7,2.3,8.7,1.2,11-2.5c0,0,0.1-0.1,0.1-0.1l9.1-15.2v267.1c0,4.4,3.6,8,8,8l0,0h240
		c4.4,0,8-3.6,8-8V271.5l9.1,15.2c2.3,3.8,7.2,5,11,2.7c0,0,0.1-0.1,0.1-0.1l64-40c3.3-2.1,4.6-6.2,3.2-9.8l-40.4-100.9
		c-5.7-14.2-17-25.5-31.2-31.2l-20.8-8.3c0,0-73.4-32.4-73.5-32.5c-0.3-0.1-99.9,0.1-100.1,0.2c0,0-72.7,32.2-72.7,32.2l-20.8,8.3
		c-14.2,5.7-25.5,17-31.2,31.2L68,239.7C66.6,243.3,67.9,247.4,71.2,249.4L71.2,249.4z M395.5,530.6h-224v-16h224V530.6z
		 M339.5,86.9l15.9,7.1c-1.9,39.7-35.6,70.4-75.3,68.5c-37.1-1.7-66.8-31.4-68.5-68.5l15.9-7.1v3.7c0,30.9,25.1,56,56,56
		s56-25.1,56-56V86.9z M323.5,82.6v8c0,22.1-17.9,40-40,40c-22.1,0-40-17.9-40-40v-8L323.5,82.6z M123.3,144.7
		c4.1-10.2,12.1-18.2,22.3-22.3l20.9-8.4c0.1,0,0.2-0.1,0.3-0.1l29.4-13c5.7,48.3,49.4,82.8,97.7,77.1c40.5-4.8,72.4-36.7,77.1-77.1
		l29.4,13c0.1,0,0.2,0.1,0.3,0.1l20.9,8.4c10.2,4.1,18.2,12.1,22.3,22.3l37.9,94.7l-51.4,32.1l-10-16.7l35.5-21.3
		c3.8-2.3,5-7.2,2.7-11c-2.3-3.8-7.2-5-11-2.7l-35.5,21.3l-1.5-2.6c-2.3-3.8-7.2-5-11-2.7c-2.4,1.4-3.9,4-3.9,6.9v256h-224v-256
		c0-4.4-3.6-8-8-8c-2.8,0-5.4,1.5-6.9,3.9l-1.5,2.6l-35.5-21.3c-3.8-2.3-8.7-1-11,2.7c-2.3,3.8-1,8.7,2.7,11l0,0l35.5,21.3l-10,16.7
		l-51.4-32.1L123.3,144.7z"/>
</g>
</svg>
